<svg width="45" height="45" viewBox="0 0 45 45" fill="none" xmlns="http://www.w3.org/2000/svg">
  <rect width="45" height="45" rx="10" fill="#F9CADA"/>
  <path d="M33.6177 11.3741C33.6163 11.3728 33.6152 11.3713 33.6138 11.37C33.6124 11.3687 33.6109 11.3676 33.6095 11.3663C33.236 11.0115 32.7002 10.9049 32.2098 11.0886L10.8339 19.0957C10.2687 19.3073 9.93766 19.8374 10.0098 20.4145C10.0821 20.9916 10.5346 21.4315 11.1359 21.5092L21.5833 22.859C21.6028 22.8615 21.6185 22.8764 21.6212 22.8953L23.0301 32.9038C23.1112 33.4798 23.5704 33.9134 24.1729 33.9826C24.2279 33.9889 24.2824 33.9919 24.3364 33.9919C24.8735 33.9919 25.3486 33.6851 25.5495 33.1932L33.9077 12.7149C34.0994 12.2452 33.9882 11.732 33.6177 11.3741ZM11.3053 20.3069C11.2819 20.3039 11.2714 20.3025 11.2673 20.27C11.2632 20.2375 11.2732 20.2338 11.2951 20.2256L31.2946 12.734L21.9404 21.6954C21.8794 21.6785 11.3053 20.3069 11.3053 20.3069ZM24.37 32.7514C24.3614 32.7723 24.358 32.782 24.3236 32.7779C24.2897 32.7741 24.2883 32.7639 24.2852 32.7416C24.2852 32.7416 22.8535 22.6116 22.8358 22.5532L32.19 13.5919L24.37 32.7514Z" fill="white"/>
</svg>
